<?xml version="1.0" standalone="no"?><!DOCTYPE svg PUBLIC "-//W3C//DTD SVG 1.1//EN" "http://www.w3.org/Graphics/SVG/1.1/DTD/svg11.dtd"><svg t="1749068880787" class="icon" viewBox="0 0 1024 1024" version="1.1" xmlns="http://www.w3.org/2000/svg" p-id="7245" width="48" height="48" xmlns:xlink="http://www.w3.org/1999/xlink"><path d="M123.733333 422.4c-64 140.8-21.333333 200.533333-21.333333 200.533333 4.266667 4.266667 8.533333 0 12.8-4.266666 21.333333-76.8 98.133333-110.933333 98.133333-110.933334l-89.6-85.333333z m179.2 25.6l76.8 72.533333 72.533334-81.066666-81.066667-68.266667 42.666667-51.2-29.866667-29.866667 46.933333-55.466666 34.133334 29.866666 55.466666-64L388.266667 85.333333 332.8 149.333333l34.133333 29.866667-46.933333 55.466667-34.133333-34.133334L128 375.466667l132.266667 119.466666 42.666666-46.933333zM853.333333 725.333333l-192-157.866666-132.266666 145.066666 174.933333 174.933334c42.666667 42.666667 115.2 42.666667 157.866667-4.266667 51.2-46.933333 42.666667-115.2-8.533334-157.866667z m-149.333333-260.266666c17.066667 4.266667 29.866667 4.266667 46.933333 4.266666 106.666667 0 187.733333-85.333333 187.733334-187.733333v-21.333333c-8.533333-25.6-34.133333-12.8-34.133334-12.8L810.666667 345.6l-93.866667-42.666667-42.666667-76.8 85.333334-102.4c4.266667-21.333333-21.333333-25.6-21.333334-29.866666-102.4 4.266667-179.2 85.333333-179.2 187.733333 0 25.6 4.266667 51.2 17.066667 72.533333l-238.933333 273.066667h-17.066667c-85.333333 0-157.866667 68.266667-157.866667 157.866667S234.666667 938.666667 320 938.666667s157.866667-68.266667 157.866667-157.866667c0-21.333333-4.266667-34.133333-8.533334-51.2l234.666667-264.533333z m-384 405.333333c-51.2 0-89.6-38.4-89.6-89.6s38.4-89.6 89.6-89.6 89.6 38.4 89.6 89.6-42.666667 89.6-89.6 89.6z" p-id="7246" fill="#1296db"></path></svg>